<svg width="11" height="13" viewBox="0 0 11 13" fill="none" xmlns="http://www.w3.org/2000/svg">
<path d="M2.48578 4.01873L7.3533 8.47567C7.40272 8.52064 7.46347 8.55128 7.52901 8.56429C7.59455 8.5773 7.6624 8.57219 7.72525 8.54951C7.78811 8.52683 7.84358 8.48743 7.88571 8.43557C7.92784 8.3837 7.95503 8.32133 7.96435 8.25516L8.74949 2.51127C8.78208 2.27316 8.53925 2.05081 8.30465 2.10395L2.652 3.39091C2.5867 3.40567 2.52669 3.43803 2.4785 3.48449C2.4303 3.53096 2.39576 3.58974 2.37863 3.65445C2.3615 3.71916 2.36243 3.78734 2.38132 3.85156C2.40021 3.91578 2.43634 3.9736 2.48578 4.01873Z" fill="#B8B8B8"/>
</svg>
